<?xml version="1.0" encoding="utf-8"?>
<!-- Generator: Adobe Illustrator 25.4.1, SVG Export Plug-In . SVG Version: 6.00 Build 0)  -->
<svg version="1.1" id="레이어_3" xmlns="http://www.w3.org/2000/svg" xmlns:xlink="http://www.w3.org/1999/xlink" x="0px"
	 y="0px" viewBox="0 0 657 113.4" style="enable-background:new 0 0 657 113.4;" xml:space="preserve">
<style type="text/css">
	.st0{fill:none;stroke:#3B82F6;stroke-width:8;stroke-linecap:round;stroke-linejoin:round;stroke-miterlimit:10;}
	.st1{fill:none;stroke:#D7D6E8;stroke-width:8;stroke-linecap:round;stroke-linejoin:round;stroke-miterlimit:10;}
	.st2{fill:none;stroke:#EF4444;stroke-width:8;stroke-linecap:round;stroke-linejoin:round;stroke-miterlimit:10;}
	.st3{fill:none;stroke:#F59E0B;stroke-width:8;stroke-linecap:round;stroke-linejoin:round;stroke-miterlimit:10;}
</style>
<g>
	<g>
		<path class="st0" d="M127.9,20.2H91.3c-10.1,0-18.2,8.1-18.2,18.2v36.5l0,0c0,10.1,8.1,18.2,18.2,18.2l0,0h36.5l0,0
			c10.1,0,18.2-8.1,18.2-18.2l0,0V38.5C146.1,28.4,138,20.2,127.9,20.2z"/>
	</g>
	<g>
		<path class="st1" d="M409.2,38.5c0-10.1-8.1-18.2-18.2-18.2l0,0h-36.5l0,0c-10.1,0-18.2,8.1-18.2,18.2V75
			c0,10.1,8.1,18.2,18.2,18.2H391c10.1,0,18.2-8.1,18.2-18.2s-8.1-18.2-18.2-18.2C401.1,56.8,409.2,48.6,409.2,38.5z"/>
	</g>
	<g>
		<path class="st1" d="M565.7,20.2L565.7,20.2h-36.5c-10.1,0-18.2,8.1-18.2,18.2v36.5l0,0c0,10.1,8.1,18.2,18.2,18.2l0,0h36.5l0,0
			c10.1,0,18.2-8.1,18.2-18.2V38.5C583.9,28.4,575.7,20.2,565.7,20.2z"/>
	</g>
	<g>
		<path class="st2" d="M265.9,93.2h36.7c13.1,0,21.7-13.8,16-25.5l-18.4-37.5c-6.5-13.3-25.4-13.3-31.8,0L250,67.8
			C244.1,79.5,252.8,93.2,265.9,93.2z"/>
	</g>
	<g>
		<circle class="st3" cx="198.6" cy="56.8" r="36.5"/>
	</g>
	<g>
		<circle class="st1" cx="458.8" cy="56.8" r="36.5"/>
	</g>
</g>
</svg>
